<?xml version="1.0" standalone="no"?><!DOCTYPE svg PUBLIC "-//W3C//DTD SVG 1.1//EN" "http://www.w3.org/Graphics/SVG/1.1/DTD/svg11.dtd"><svg t="1740248489330" class="icon" viewBox="0 0 1024 1024" version="1.1" xmlns="http://www.w3.org/2000/svg" p-id="5727" xmlns:xlink="http://www.w3.org/1999/xlink" width="200" height="200"><path d="M721.92 395.947c-17.067 0-32.427 13.653-32.427 32.426v40.96c-1.706 18.774-17.066 32.427-35.84 32.427s-37.546-13.653-37.546-34.133v-122.88c0-15.36-13.654-32.427-32.427-32.427-17.067 0-32.427 13.653-32.427 32.427v76.8c0 18.773-17.066 35.84-37.546 35.84-18.774 0-35.84-13.654-37.547-34.134V322.56c0-15.36-13.653-32.427-32.427-32.427-17.066 0-32.426 13.654-32.426 32.427v141.653c0 18.774-17.067 35.84-37.547 35.84-18.773 0-35.84-13.653-35.84-35.84v-37.546c0-15.36-13.653-32.427-32.427-32.427s-32.426 15.36-32.426 32.427V583.68c0 15.36 13.653 32.427 32.426 32.427s32.427-13.654 32.427-32.427v-15.36c0-18.773 17.067-35.84 37.547-35.84 18.773 0 37.546 15.36 37.546 35.84v59.733c0 15.36 13.654 32.427 32.427 32.427s32.427-13.653 32.427-32.427v-102.4c0-18.773 17.066-34.133 37.546-34.133 18.774 0 37.547 15.36 37.547 35.84v122.88c0 15.36 13.653 32.427 32.427 32.427 17.066 0 32.426-13.654 32.426-32.427v-80.213c0-18.774 13.654-34.134 37.547-34.134 18.773 0 35.84 13.654 35.84 32.427v15.36c0 15.36 13.653 32.427 32.427 32.427 17.066 0 32.426-13.654 32.426-32.427V426.667c-3.413-17.067-18.773-30.72-34.133-30.72z m-484.693 63.146c-17.067 0-32.427 13.654-32.427 32.427v32.427c0 15.36 13.653 32.426 32.427 32.426 17.066 0 32.426-13.653 32.426-32.426V491.52c-3.413-18.773-18.773-32.427-32.426-32.427z m566.613 0c-17.067 0-32.427 13.654-32.427 32.427v32.427c0 15.36 13.654 32.426 32.427 32.426s32.427-13.653 32.427-32.426V491.52c0-18.773-13.654-32.427-32.427-32.427z" p-id="5728"></path><path d="M936.96 651.947V368.64c30.72-13.653 49.493-44.373 49.493-76.8 0-46.08-37.546-83.627-85.333-83.627-17.067 0-35.84 5.12-49.493 17.067L597.333 85.333v-1.706C597.333 37.547 559.787 0 512 0s-85.333 37.547-85.333 83.627v1.706L172.373 230.4c-17.066-11.947-34.133-17.067-52.906-17.067-47.787-1.706-85.334 34.134-85.334 81.92 0 34.134 22.187 64.854 54.614 78.507v281.6c-34.134 8.533-54.614 39.253-54.614 71.68 0 46.08 37.547 83.627 85.334 83.627 17.066 0 35.84-5.12 49.493-13.654l257.707 143.36c0 46.08 37.546 83.627 85.333 83.627s85.333-37.547 85.333-83.627l256-143.36c13.654 8.534 30.72 13.654 47.787 13.654 47.787 0 85.333-37.547 85.333-83.627 1.707-30.72-18.773-61.44-49.493-75.093z m-54.613-3.414c-10.24 1.707-18.774 6.827-29.014 11.947l-64.853-34.133c-1.707 0-6.827-1.707-10.24-1.707-13.653 0-29.013 11.947-29.013 27.307 0 8.533 5.12 17.066 11.946 20.48l58.027 32.426c-1.707 8.534-5.12 17.067-5.12 27.307s1.707 17.067 5.12 27.307L578.56 894.293c-10.24-11.946-22.187-20.48-40.96-30.72V793.6c-1.707-13.653-11.947-25.6-29.013-25.6s-25.6 8.533-29.014 25.6v66.56c-17.066 5.12-34.133 13.653-42.666 30.72L192.853 754.347c1.707-8.534 5.12-17.067 5.12-25.6 0-6.827 0-11.947-1.706-17.067l58.026-34.133L256 675.84c6.827-5.12 11.947-11.947 11.947-20.48 0-13.653-11.947-27.307-29.014-27.307-5.12 0-10.24 1.707-13.653 5.12l-58.027 34.134c-10.24-6.827-18.773-11.947-34.133-17.067V373.76c11.947-5.12 22.187-8.533 30.72-17.067l59.733 32.427c1.707 1.707 6.827 1.707 10.24 1.707 13.654 0 29.014-11.947 29.014-27.307 0-6.827-5.12-13.653-10.24-20.48l-52.907-32.427c1.707-5.12 1.707-11.946 1.707-17.066 0-6.827 0-13.654-1.707-20.48l244.053-136.534c10.24 11.947 25.6 20.48 40.96 27.307v69.973c0 13.654 11.947 27.307 29.014 27.307s29.013-11.947 29.013-27.307v-68.266c13.653-5.12 29.013-13.654 37.547-27.307l240.64 134.827c-1.707 8.533-1.707 17.066-1.707 20.48v11.946l-58.027 34.134c-6.826 5.12-11.946 11.946-11.946 20.48 0 13.653 11.946 27.306 29.013 27.306 5.12 0 6.827 0 11.947-1.706L844.8 353.28c10.24 8.533 25.6 17.067 40.96 20.48v274.773h-3.413z" p-id="5729"></path></svg>